# xmcd
#
# Track frame offsets:
#	150
#	16823
#	30584
#	47255
#
# Disc length: 810 seconds
#
# Revision: 0
# Processed by: cddbd v1.5.1PL0 Copyright (c) Steve Scherf et al.
# Submitted via: EasyCDDAExtractor 4.6.0.1
#
DISCID=1e032804
DTITLE=Agnes Chan - 16 tea
DYEAR=2005
DGENRE=Anime
TTITLE0=草原之輝2005
TTITLE1=口袋的秘密2005
TTITLE2=草原之輝2005(音樂)
TTITLE3=口袋的秘密2005(音樂)
EXTD=YEAR: 1996\n
EXTT0=
EXTT1=
EXTT2=
EXTT3=
PLAYORDER=
